<svg width="64" height="64" viewBox="0 0 64 64" fill="none" xmlns="http://www.w3.org/2000/svg">
<g clip-path="url(#clip0_26_492)">
<path d="M49.875 48.025C47.1125 43.225 41.925 40 36 40H28C22.075 40 16.8875 43.225 14.125 48.025C18.525 52.925 24.9 56 32 56C39.1 56 45.475 52.9125 49.875 48.025ZM64 32C64 49.675 49.675 64 32 64C14.325 64 0 49.675 0 32C0 14.325 14.325 0 32 0C49.675 0 64 14.325 64 32ZM32 34C36.975 34 41 29.975 41 25C41 20.025 36.975 16 32 16C27.025 16 23 20.025 23 25C23 29.975 27.025 34 32 34Z" fill="white"/>
</g>
<defs>
<clipPath id="clip0_26_492">
<rect width="64" height="64" fill="white"/>
</clipPath>
</defs>
</svg>
