<svg width="107" height="107" viewBox="0 0 107 107" fill="none" xmlns="http://www.w3.org/2000/svg">
<rect width="107" height="107" rx="30" fill="#574F7D"/>
<g filter="url(#filter0_d_189_604)">
<path d="M79.1554 26.4985C79.8991 26.2991 80.5796 26.9797 80.3803 27.7233L78.2304 35.7428C78.031 36.4863 77.1016 36.7353 76.5574 36.191L70.6878 30.3214C70.1435 29.7771 70.3925 28.8478 71.136 28.6484L79.1554 26.4985Z" fill="#222831"/>
<path d="M86.2496 41.6754C86.9162 42.0602 86.9161 43.0225 86.2493 43.4075L79.0589 47.5596C78.3922 47.9446 77.559 47.4636 77.5591 46.6938L77.5603 38.3917C77.5604 37.6219 78.3938 37.1407 79.0604 37.5255L86.2496 41.6754Z" fill="#222831"/>
<path d="M60.0105 29.4844C59.2406 29.4845 58.7595 28.651 59.1445 27.9842L63.2966 20.7938C63.6816 20.1271 64.6437 20.1272 65.0285 20.7938L69.1785 27.983C69.5633 28.6496 69.0823 29.483 68.3126 29.4831L60.0105 29.4844Z" fill="#222831"/>
<path d="M51.9451 36.4149C51.4007 36.9594 50.4711 36.7104 50.2719 35.9668L48.1244 27.948C47.9253 27.2045 48.6058 26.5241 49.3494 26.7232L57.3682 28.8708C58.1118 29.0699 58.3608 29.9992 57.8164 30.5436L51.9451 36.4149Z" fill="#222831"/>
<path d="M72.3859 55.7057C71.6423 55.5066 71.3934 54.577 71.9378 54.0326L77.8091 48.1613C78.3535 47.6169 79.2828 47.8659 79.4819 48.6094L81.6295 56.6283C81.8286 57.3718 81.1482 58.0524 80.4047 57.8533L72.3859 55.7057Z" fill="#222831"/>
<path d="M41.2307 72.8688C36.8464 75.2949 32.0157 70.4811 34.4265 66.0883L48.2422 40.9143C49.7422 38.1811 53.3506 37.4723 55.7731 39.435L68.6279 49.8502C71.3829 52.0823 71.0036 56.3932 67.9012 58.11L41.2307 72.8688Z" fill="#222831"/>
<rect x="64.1619" y="23.3259" width="27.7194" height="19.8317" rx="3" transform="rotate(45 64.1619 23.3259)" fill="#222831"/>
<path d="M61.7587 35.5946C62.3681 34.9852 63.356 34.9852 63.9654 35.5946C64.5748 36.2039 64.5748 37.1919 63.9654 37.8012L63.4454 38.3213C62.836 38.9306 61.848 38.9306 61.2387 38.3213C60.6293 37.7119 60.6293 36.724 61.2387 36.1146L61.7587 35.5946Z" fill="#AAC3D6"/>
<path d="M69.2875 43.1234C69.8969 42.514 70.8849 42.514 71.4942 43.1234C72.1036 43.7327 72.1036 44.7207 71.4942 45.3301L70.9742 45.8501C70.3648 46.4595 69.3768 46.4595 68.7675 45.8501C68.1581 45.2407 68.1581 44.2528 68.7675 43.6434L69.2875 43.1234Z" fill="#AAC3D6"/>
<path d="M61.4825 41.9176L64.4102 42.534L65.0265 45.4616" stroke="#AAC3D6" stroke-width="2" stroke-linecap="round"/>
</g>
<defs>
<filter id="filter0_d_189_604" x="33.7834" y="20.2937" width="52.9661" height="57.2268" filterUnits="userSpaceOnUse" color-interpolation-filters="sRGB">
<feFlood flood-opacity="0" result="BackgroundImageFix"/>
<feColorMatrix in="SourceAlpha" type="matrix" values="0 0 0 0 0 0 0 0 0 0 0 0 0 0 0 0 0 0 127 0" result="hardAlpha"/>
<feOffset dy="4"/>
<feComposite in2="hardAlpha" operator="out"/>
<feColorMatrix type="matrix" values="0 0 0 0 0.666667 0 0 0 0 0.764706 0 0 0 0 0.839216 0 0 0 1 0"/>
<feBlend mode="normal" in2="BackgroundImageFix" result="effect1_dropShadow_189_604"/>
<feBlend mode="normal" in="SourceGraphic" in2="effect1_dropShadow_189_604" result="shape"/>
</filter>
</defs>
</svg>
