<svg width="64" height="74" viewBox="0 0 64 74" fill="none" xmlns="http://www.w3.org/2000/svg">
<g clip-path="url(#clip0_34_425)">
<path d="M32.0002 0C29.4716 0 27.4288 2.0668 27.4288 4.625V7.4C17.0002 9.53906 9.14305 18.8758 9.14305 30.0625V32.7797C9.14305 39.5727 6.67162 46.1344 2.21448 51.2219L1.15734 52.4215C-0.0426619 53.7801 -0.328376 55.7313 0.400195 57.3934C1.12877 59.0555 2.77162 60.125 4.57162 60.125H59.4288C61.2288 60.125 62.8573 59.0555 63.6002 57.3934C64.3431 55.7313 64.0431 53.7801 62.8431 52.4215L61.7859 51.2219C57.3288 46.1344 54.8573 39.5871 54.8573 32.7797V30.0625C54.8573 18.8758 47.0002 9.53906 36.5716 7.4V4.625C36.5716 2.0668 34.5288 0 32.0002 0ZM38.4716 71.2973C40.1859 69.5629 41.1431 67.207 41.1431 64.75H32.0002H22.8573C22.8573 67.207 23.8145 69.5629 25.5288 71.2973C27.2431 73.0316 29.5716 74 32.0002 74C34.4288 74 36.7573 73.0316 38.4716 71.2973Z" fill="white"/>
</g>
<defs>
<clipPath id="clip0_34_425">
<rect width="64" height="74" fill="white"/>
</clipPath>
</defs>
</svg>
